<svg id="Layer_1" data-name="Layer 1" xmlns="http://www.w3.org/2000/svg" viewBox="0 0 1080 1080"><defs><style>.cls-1{fill:#fff;}.cls-2{fill:#f8b681;}</style></defs><path class="cls-1" d="M889.37,991.72H190.63c-30.69,0-55.56-22.35-55.56-49.92V141c0-27.57,24.87-49.91,55.56-49.91H889.37c30.69,0,55.56,22.34,55.56,49.91V941.8C944.93,969.37,920.06,991.72,889.37,991.72Z"/><path class="cls-2" d="M287.51,528.19V935.08a56.63,56.63,0,0,0,56.63,56.64H735.75c49.93,0,75.43-59.93,40.8-95.91L385,488.92C349.6,452.18,287.51,477.21,287.51,528.19Z"/><path class="cls-2" d="M792.49,551.81V144.91a56.63,56.63,0,0,0-56.63-56.63H344.25c-49.93,0-75.43,59.93-40.8,95.91L695.06,591.08C730.41,627.81,792.49,602.79,792.49,551.81Z"/></svg>